<svg id="svg" version="1.1" xmlns="http://www.w3.org/2000/svg" xmlns:xlink="http://www.w3.org/1999/xlink" width="400" height="393.2773109243698" viewBox="0, 0, 400,393.2773109243698"><g id="svgg"><path id="path0" d="M0.000 196.657 L 0.000 393.314 153.196 393.314 C 237.453 393.314,306.391 393.215,306.391 393.095 C 306.391 392.804,305.458 390.774,301.902 383.338 C 300.261 379.907,298.918 377.047,298.918 376.984 C 298.918 376.920,297.841 374.595,296.525 371.817 C 295.209 369.038,293.589 365.615,292.924 364.208 C 292.260 362.802,290.667 359.440,289.385 356.735 C 288.103 354.031,286.691 351.023,286.248 350.049 C 285.805 349.076,284.138 345.561,282.544 342.239 C 280.950 338.916,279.646 336.131,279.646 336.050 C 279.646 335.968,278.691 333.908,277.524 331.471 C 276.357 329.034,274.959 326.067,274.418 324.877 C 273.878 323.687,272.462 320.678,271.272 318.191 C 269.084 313.618,267.005 309.166,265.208 305.211 C 264.668 304.022,263.648 301.809,262.941 300.295 C 260.978 296.085,259.545 292.945,258.991 291.642 C 258.369 290.177,257.053 287.208,255.766 284.366 C 253.102 278.480,248.858 267.898,246.224 260.570 C 243.896 254.094,241.669 245.781,240.112 237.758 C 237.197 222.732,239.027 204.195,245.238 185.841 C 246.799 181.229,248.375 176.864,249.427 174.238 C 250.077 172.616,250.747 170.934,250.915 170.501 C 251.084 170.069,251.417 169.272,251.654 168.732 C 251.892 168.191,253.171 165.182,254.497 162.045 C 255.823 158.909,257.266 155.546,257.703 154.572 C 258.139 153.599,258.850 152.006,259.283 151.032 C 260.315 148.707,261.543 146.021,263.282 142.281 C 266.865 134.579,267.608 132.978,268.677 130.662 C 269.305 129.301,270.632 126.472,271.624 124.376 C 272.616 122.280,274.052 119.235,274.814 117.608 C 275.575 115.982,276.911 113.147,277.781 111.308 C 278.651 109.469,279.936 106.726,280.636 105.211 C 281.336 103.697,282.835 100.511,283.966 98.132 C 286.963 91.830,288.818 87.899,290.370 84.562 C 291.125 82.940,292.540 79.931,293.515 77.876 C 294.490 75.821,295.911 72.809,296.672 71.182 C 297.433 69.556,298.850 66.547,299.821 64.496 C 300.791 62.445,302.203 59.440,302.958 57.817 C 303.713 56.195,305.301 52.832,306.488 50.344 C 308.930 45.223,309.527 43.935,313.862 34.415 C 314.059 33.982,314.936 32.062,315.812 30.148 C 316.688 28.233,317.404 26.609,317.404 26.537 C 317.404 26.465,317.916 25.288,318.541 23.921 C 319.166 22.554,320.163 20.374,320.756 19.076 C 322.080 16.180,328.806 1.172,329.086 0.492 C 329.247 0.099,296.204 0.000,164.644 0.000 L 0.000 0.000 0.000 196.657 M334.281 1.076 C 333.866 2.168,333.229 3.651,331.956 6.490 C 331.568 7.355,330.887 8.884,330.442 9.887 C 329.157 12.788,326.252 19.230,324.920 22.134 C 324.247 23.599,323.697 24.862,323.697 24.941 C 323.697 25.019,322.929 26.740,321.991 28.766 C 319.830 33.429,319.054 35.132,316.794 40.172 C 315.789 42.414,313.922 46.433,312.646 49.103 C 311.369 51.773,310.324 54.022,310.324 54.101 C 310.324 54.180,308.909 57.190,307.178 60.791 C 305.447 64.392,304.031 67.389,304.031 67.451 C 304.031 67.513,302.864 70.017,301.438 73.015 C 298.513 79.162,296.581 83.267,294.985 86.726 C 293.390 90.185,291.458 94.290,288.533 100.436 C 287.106 103.434,285.939 105.934,285.939 105.992 C 285.939 106.050,284.682 108.730,283.147 111.948 C 280.234 118.049,278.341 122.067,276.498 126.057 C 275.899 127.355,274.877 129.567,274.227 130.973 C 273.577 132.380,272.318 135.079,271.429 136.971 C 270.540 138.864,269.086 141.962,268.197 143.854 C 265.710 149.150,264.463 151.852,263.613 153.786 C 263.185 154.759,262.170 157.060,261.357 158.899 C 260.544 160.737,259.566 162.950,259.184 163.815 C 258.024 166.445,253.792 177.036,252.898 179.548 C 252.436 180.846,251.898 182.262,251.703 182.694 C 250.807 184.681,247.749 194.675,246.694 199.066 C 242.273 217.459,242.864 232.196,248.824 252.114 C 249.374 253.953,249.985 255.765,250.183 256.140 C 250.380 256.516,250.541 257.093,250.541 257.424 C 250.541 257.754,250.711 258.332,250.919 258.707 C 251.128 259.083,251.729 260.629,252.256 262.144 C 253.169 264.766,255.243 270.182,256.059 272.075 C 256.269 272.561,256.600 273.358,256.795 273.845 C 256.989 274.331,257.520 275.568,257.975 276.594 C 258.429 277.619,258.800 278.547,258.800 278.657 C 258.800 278.766,259.420 280.197,260.177 281.836 C 260.934 283.475,261.554 284.887,261.554 284.973 C 261.554 285.059,261.976 286.064,262.493 287.206 C 263.009 288.348,263.826 290.167,264.307 291.249 C 265.875 294.774,266.938 297.086,268.741 300.885 C 269.716 302.940,271.127 305.949,271.878 307.571 C 272.628 309.194,273.887 311.893,274.674 313.569 C 278.491 321.694,281.122 327.307,283.385 332.153 C 284.092 333.668,285.598 336.853,286.731 339.233 C 287.864 341.613,289.452 344.975,290.261 346.706 C 292.800 352.142,294.623 356.020,296.455 359.882 C 297.430 361.937,298.845 364.946,299.600 366.568 C 300.354 368.191,301.765 371.196,302.736 373.247 C 303.706 375.298,305.127 378.307,305.892 379.933 C 306.657 381.560,308.322 385.082,309.591 387.761 C 310.860 390.439,311.898 392.784,311.898 392.972 C 311.898 393.163,331.295 393.314,355.949 393.314 L 400.000 393.314 400.000 196.657 L 400.000 0.000 367.345 0.000 L 334.690 0.000 334.281 1.076 M114.096 166.912 C 139.147 173.543,160.435 202.052,157.713 225.324 C 156.098 239.136,149.483 252.005,138.781 262.153 C 106.533 292.732,70.548 275.324,67.216 227.532 C 64.499 188.567,86.828 159.694,114.096 166.912 M100.688 171.465 C 88.890 173.710,79.286 184.590,74.805 200.787 C 74.051 203.511,73.677 205.269,72.714 210.619 C 71.962 214.798,72.108 229.344,72.949 234.022 C 73.319 236.077,73.767 238.573,73.946 239.569 C 76.347 252.950,86.123 266.684,95.969 270.508 C 101.534 272.670,110.198 272.885,115.044 270.981 C 115.477 270.811,117.040 270.208,118.517 269.642 C 133.911 263.738,147.011 248.283,151.877 230.285 C 152.703 227.232,152.594 216.100,151.702 212.427 C 145.872 188.406,120.161 167.761,100.688 171.465 " stroke="none" fill="#fbfbfb" fill-rule="evenodd"></path><path id="path1" d="M325.844 7.768 C 323.943 12.040,321.817 16.775,321.119 18.289 C 318.581 23.797,317.404 26.410,317.404 26.537 C 317.404 26.609,316.688 28.233,315.812 30.148 C 314.936 32.062,314.059 33.982,313.862 34.415 C 309.527 43.935,308.930 45.223,306.488 50.344 C 305.301 52.832,303.713 56.195,302.958 57.817 C 302.203 59.440,300.791 62.445,299.821 64.496 C 298.850 66.547,297.433 69.556,296.672 71.182 C 295.911 72.809,294.490 75.821,293.515 77.876 C 292.540 79.931,291.125 82.940,290.370 84.562 C 288.818 87.899,286.963 91.830,283.966 98.132 C 282.835 100.511,281.336 103.697,280.636 105.211 C 279.936 106.726,278.651 109.469,277.781 111.308 C 276.911 113.147,275.575 115.982,274.814 117.608 C 274.052 119.235,272.635 122.244,271.664 124.295 C 270.021 127.767,268.575 130.866,265.886 136.676 C 265.286 137.974,264.135 140.452,263.329 142.183 C 261.561 145.982,260.347 148.635,259.238 151.131 C 258.781 152.158,258.070 153.751,257.658 154.671 C 257.045 156.039,253.021 165.496,251.759 168.535 C 251.580 168.968,251.247 169.764,251.021 170.305 C 249.114 174.857,247.368 179.546,245.238 185.841 C 239.027 204.195,237.197 222.732,240.112 237.758 C 241.669 245.781,243.896 254.094,246.224 260.570 C 248.858 267.898,253.102 278.480,255.766 284.366 C 257.053 287.208,258.369 290.177,258.991 291.642 C 259.545 292.945,260.978 296.085,262.941 300.295 C 263.648 301.809,264.668 304.022,265.208 305.211 C 267.005 309.166,269.084 313.618,271.272 318.191 C 272.462 320.678,273.878 323.687,274.418 324.877 C 274.959 326.067,276.357 329.034,277.524 331.471 C 278.691 333.908,279.646 335.968,279.646 336.050 C 279.646 336.131,280.950 338.916,282.544 342.239 C 284.138 345.561,285.805 349.076,286.248 350.049 C 286.691 351.023,288.103 354.031,289.385 356.735 C 290.667 359.440,292.260 362.802,292.924 364.208 C 293.589 365.615,295.209 369.038,296.525 371.817 C 297.841 374.595,298.918 376.923,298.918 376.989 C 298.918 377.055,300.303 380.003,301.996 383.540 C 303.689 387.077,305.404 390.723,305.808 391.642 L 306.543 393.314 309.220 393.314 C 312.443 393.314,312.416 393.724,309.591 387.761 C 308.322 385.082,306.657 381.560,305.892 379.933 C 305.127 378.307,303.706 375.298,302.736 373.247 C 301.765 371.196,300.354 368.191,299.600 366.568 C 298.845 364.946,297.430 361.937,296.455 359.882 C 294.623 356.020,292.800 352.142,290.261 346.706 C 289.452 344.975,287.864 341.613,286.731 339.233 C 285.598 336.853,284.092 333.668,283.385 332.153 C 281.124 327.312,277.915 320.466,274.721 313.668 C 273.908 311.937,272.628 309.194,271.878 307.571 C 271.127 305.949,269.716 302.940,268.741 300.885 C 266.938 297.086,265.875 294.774,264.307 291.249 C 263.826 290.167,263.009 288.348,262.493 287.206 C 261.976 286.064,261.554 285.059,261.554 284.973 C 261.554 284.887,260.934 283.475,260.177 281.836 C 259.420 280.197,258.800 278.766,258.800 278.657 C 258.800 278.547,258.429 277.619,257.975 276.594 C 257.520 275.568,256.989 274.331,256.795 273.845 C 256.600 273.358,256.269 272.561,256.059 272.075 C 255.243 270.182,253.169 264.766,252.256 262.144 C 251.729 260.629,251.128 259.083,250.919 258.707 C 250.711 258.332,250.541 257.754,250.541 257.424 C 250.541 257.093,250.380 256.516,250.183 256.140 C 249.985 255.765,249.374 253.953,248.824 252.114 C 242.864 232.196,242.273 217.459,246.694 199.066 C 247.749 194.675,250.807 184.681,251.703 182.694 C 251.898 182.262,252.436 180.846,252.898 179.548 C 253.792 177.036,258.024 166.445,259.184 163.815 C 259.566 162.950,260.544 160.737,261.357 158.899 C 262.170 157.060,263.185 154.759,263.613 153.786 C 264.463 151.852,265.710 149.150,268.197 143.854 C 269.086 141.962,270.540 138.864,271.429 136.971 C 272.318 135.079,273.577 132.380,274.227 130.973 C 274.877 129.567,275.899 127.355,276.498 126.057 C 278.341 122.067,280.234 118.049,283.147 111.948 C 284.682 108.730,285.939 106.050,285.939 105.992 C 285.939 105.934,287.106 103.434,288.533 100.436 C 291.458 94.290,293.390 90.185,294.985 86.726 C 296.581 83.267,298.513 79.162,301.438 73.015 C 302.864 70.017,304.031 67.513,304.031 67.451 C 304.031 67.389,305.447 64.392,307.178 60.791 C 308.909 57.190,310.324 54.180,310.324 54.101 C 310.324 54.022,311.369 51.773,312.646 49.103 C 313.922 46.433,315.789 42.414,316.794 40.172 C 319.054 35.132,319.830 33.429,321.991 28.766 C 322.929 26.740,323.697 25.019,323.697 24.941 C 323.697 24.862,324.247 23.599,324.920 22.134 C 326.252 19.230,329.157 12.788,330.442 9.887 C 330.887 8.884,331.568 7.355,331.956 6.490 C 333.229 3.651,333.866 2.168,334.281 1.076 L 334.690 0.000 331.995 0.000 L 329.299 0.000 325.844 7.768 M100.492 166.359 C 79.207 169.887,65.016 195.975,67.216 227.532 C 70.548 275.324,106.533 292.732,138.781 262.153 C 155.351 246.441,161.655 225.275,155.302 206.686 C 146.829 181.895,121.077 162.948,100.492 166.359 M115.634 172.670 C 132.042 178.070,147.499 195.108,151.702 212.427 C 152.594 216.100,152.703 227.232,151.877 230.285 C 147.011 248.283,133.911 263.738,118.517 269.642 C 117.040 270.208,115.477 270.811,115.044 270.981 C 110.198 272.885,101.534 272.670,95.969 270.508 C 86.123 266.684,76.347 252.950,73.946 239.569 C 73.767 238.573,73.319 236.077,72.949 234.022 C 72.108 229.344,71.962 214.798,72.714 210.619 C 73.677 205.269,74.051 203.511,74.805 200.787 C 81.186 177.723,97.290 166.632,115.634 172.670 " stroke="none" fill="#212121" fill-rule="evenodd"></path></g></svg>